<svg width="164" height="63" viewBox="0 0 164 63" fill="none" xmlns="http://www.w3.org/2000/svg">
<path d="M157.579 47.28C158.304 46.2346 159.19 45.4026 160.235 44.784C161.28 44.144 162.368 43.824 163.499 43.824V51.408H161.483C160.139 51.408 159.147 51.6426 158.507 52.112C157.888 52.5813 157.579 53.4133 157.579 54.608V62H150.475V43.952H157.579V47.28Z" fill="#CBD5E1"/>
<path d="M148.228 52.816C148.228 53.3067 148.196 53.776 148.132 54.224H136.708C136.815 55.7814 137.466 56.56 138.66 56.56C139.428 56.56 139.983 56.208 140.324 55.504H147.844C147.588 56.784 147.044 57.936 146.212 58.96C145.402 59.9627 144.367 60.7627 143.108 61.36C141.871 61.936 140.506 62.224 139.012 62.224C137.22 62.224 135.62 61.8507 134.212 61.104C132.826 60.3574 131.738 59.2907 130.948 57.904C130.18 56.496 129.796 54.8534 129.796 52.976C129.796 51.0987 130.18 49.4667 130.948 48.08C131.738 46.672 132.826 45.5947 134.212 44.848C135.62 44.1014 137.22 43.728 139.012 43.728C140.804 43.728 142.394 44.1014 143.78 44.848C145.188 45.5734 146.276 46.6187 147.044 47.984C147.834 49.3494 148.228 50.96 148.228 52.816ZM141.028 51.12C141.028 50.5227 140.836 50.0747 140.452 49.776C140.068 49.456 139.588 49.296 139.012 49.296C137.754 49.296 137.018 49.904 136.804 51.12H141.028Z" fill="#CBD5E1"/>
<path d="M120.683 61.9999L116.235 54.7999V61.9999H109.131V38.3199H116.235V50.7039L120.747 43.9519H129.003L122.251 53.0399L129.163 61.9999H120.683Z" fill="#CBD5E1"/>
<path d="M88.6712 52.976C88.6712 51.0987 89.0552 49.4667 89.8232 48.08C90.6126 46.672 91.7006 45.5947 93.0872 44.848C94.4952 44.1014 96.0953 43.728 97.8873 43.728C100.234 43.728 102.207 44.3894 103.807 45.712C105.429 47.0347 106.453 48.8694 106.879 51.216H99.3593C99.0819 50.2774 98.5379 49.808 97.7272 49.808C97.1512 49.808 96.6926 50.0747 96.3512 50.608C96.0312 51.1414 95.8712 51.9307 95.8712 52.976C95.8712 54.0214 96.0312 54.8107 96.3512 55.344C96.6926 55.8774 97.1512 56.144 97.7272 56.144C98.5379 56.144 99.0819 55.6747 99.3593 54.736H106.879C106.453 57.0827 105.429 58.9174 103.807 60.24C102.207 61.5627 100.234 62.224 97.8873 62.224C96.0953 62.224 94.4952 61.8507 93.0872 61.104C91.7006 60.3574 90.6126 59.2907 89.8232 57.904C89.0552 56.496 88.6712 54.8534 88.6712 52.976Z" fill="#CBD5E1"/>
<path d="M66.9212 52.976C66.9212 51.0774 67.2412 49.4347 67.8812 48.048C68.5426 46.64 69.4386 45.5734 70.5693 44.848C71.6999 44.1014 72.9693 43.728 74.3773 43.728C75.5506 43.728 76.5639 43.9734 77.4173 44.464C78.2706 44.9334 78.9212 45.584 79.3692 46.416V43.952H86.4413V62H79.3692V59.536C78.9212 60.368 78.2706 61.0294 77.4173 61.52C76.5639 61.9894 75.5506 62.224 74.3773 62.224C72.9693 62.224 71.6999 61.8614 70.5693 61.136C69.4386 60.3894 68.5426 59.3227 67.8812 57.936C67.2412 56.528 66.9212 54.8747 66.9212 52.976ZM79.3692 52.976C79.3692 52.016 79.1239 51.2694 78.6332 50.736C78.1426 50.2027 77.5133 49.936 76.7453 49.936C75.9773 49.936 75.3479 50.2027 74.8573 50.736C74.3666 51.2694 74.1212 52.016 74.1212 52.976C74.1212 53.936 74.3666 54.6827 74.8573 55.216C75.3479 55.7494 75.9773 56.016 76.7453 56.016C77.5133 56.016 78.1426 55.7494 78.6332 55.216C79.1239 54.6827 79.3692 53.936 79.3692 52.976Z" fill="#CBD5E1"/>
<path d="M60.0478 47.28C60.7731 46.2346 61.6584 45.4026 62.7038 44.784C63.7491 44.144 64.8371 43.824 65.9678 43.824V51.408H63.9518C62.6078 51.408 61.6158 51.6426 60.9758 52.112C60.3571 52.5813 60.0478 53.4133 60.0478 54.608V62H52.9438V43.952H60.0478V47.28Z" fill="#CBD5E1"/>
<path d="M51.017 39.344V44.976H45.001V62H37.897V44.976H31.945V39.344H51.017Z" fill="#CBD5E1"/>
<path d="M107.078 8.95203L95.5257 35.64H87.7497L92.2937 26.104L84.7737 8.95203H92.6777L96.0697 18.104L99.2377 8.95203H107.078Z" fill="#CBD5E1"/>
<path d="M83.9883 20.952V27H81.3003C76.3509 27 73.8763 24.536 73.8763 19.608V14.872H71.6363V8.95198H73.8763V4.59998H80.9803V8.95198H83.9243V14.872H80.9803V19.736C80.9803 20.1626 81.0763 20.472 81.2683 20.664C81.4816 20.856 81.8229 20.952 82.2923 20.952H83.9883Z" fill="#CBD5E1"/>
<path d="M66.0277 7.51205C64.7904 7.51205 63.7984 7.18138 63.0517 6.52005C62.3051 5.85871 61.9317 5.02671 61.9317 4.02405C61.9317 3.00005 62.3051 2.15738 63.0517 1.49605C63.7984 0.813379 64.7904 0.472046 66.0277 0.472046C67.2437 0.472046 68.2251 0.813379 68.9717 1.49605C69.7184 2.15738 70.0917 3.00005 70.0917 4.02405C70.0917 5.02671 69.7184 5.85871 68.9717 6.52005C68.2251 7.18138 67.2437 7.51205 66.0277 7.51205ZM69.5477 8.95205V27H62.4437V8.95205H69.5477Z" fill="#CBD5E1"/>
<path d="M59.2353 8.95203V27H52.1312V24.248C51.5766 25.1014 50.8299 25.7947 49.8913 26.328C48.9739 26.8614 47.8752 27.128 46.5952 27.128C44.5259 27.128 42.9046 26.4347 41.7313 25.048C40.5793 23.6614 40.0033 21.784 40.0033 19.416V8.95203H47.0752V18.52C47.0752 19.3734 47.2992 20.056 47.7472 20.568C48.2166 21.0587 48.8352 21.304 49.6032 21.304C50.3926 21.304 51.0113 21.0587 51.4593 20.568C51.9073 20.056 52.1312 19.3734 52.1312 18.52V8.95203H59.2353Z" fill="#CBD5E1"/>
<path d="M17.4212 18.104C17.4212 16.3333 17.7839 14.744 18.5093 13.336C19.2346 11.928 20.2052 10.8293 21.4212 10.04C22.6586 9.22931 23.9813 8.82397 25.3893 8.82397C26.3493 8.82397 27.1919 8.96264 27.9173 9.23997C28.6426 9.49597 29.2933 9.93331 29.8693 10.552V8.95197H36.9413V35.64H29.8693V25.016C29.2293 25.7626 28.5466 26.3173 27.8213 26.68C27.1173 27.0213 26.3066 27.192 25.3893 27.192C23.9599 27.192 22.6372 26.808 21.4212 26.04C20.2052 25.272 19.2346 24.2053 18.5093 22.84C17.7839 21.4533 17.4212 19.8746 17.4212 18.104ZM29.8693 17.976C29.8693 16.9306 29.5919 16.1733 29.0373 15.704C28.5039 15.2133 27.9066 14.968 27.2453 14.968C26.6053 14.968 26.0079 15.2346 25.4533 15.768C24.8986 16.28 24.6213 17.0586 24.6213 18.104C24.6213 19.128 24.8879 19.8746 25.4212 20.344C25.9759 20.792 26.5839 21.016 27.2453 21.016C27.9066 21.016 28.5039 20.7706 29.0373 20.28C29.5919 19.7893 29.8693 19.0213 29.8693 17.976Z" fill="#CBD5E1"/>
<path d="M7.70401 10.008V12.792H14.744V18.136H7.70401V21.336H15.704V27H0.600006V4.34399H15.704V10.008H7.70401Z" fill="#CBD5E1"/>
</svg>
